<svg width="48" height="48" viewBox="0 0 48 48" fill="none" xmlns="http://www.w3.org/2000/svg">
<rect x="22" y="20" width="4" height="4" fill="#833B1A"/>
<rect x="22" y="12" width="4" height="4" fill="#833B1A"/>
<rect x="28" y="4" width="4" height="4" fill="#833B1A"/>
<rect x="28" y="40" width="4" height="4" fill="#833B1A"/>
<rect x="24" y="4" width="4" height="4" fill="#833B1A"/>
<rect x="24" y="40" width="4" height="4" fill="#833B1A"/>
<rect x="20" y="4" width="4" height="4" fill="#833B1A"/>
<rect x="20" y="40" width="4" height="4" fill="#833B1A"/>
<rect x="36" y="12" width="4" height="4" fill="#833B1A"/>
<rect x="16" y="4" width="4" height="4" fill="#833B1A"/>
<rect x="16" y="40" width="4" height="4" fill="#833B1A"/>
<rect x="32" y="8" width="4" height="4" fill="#833B1A"/>
<rect x="8" y="12" width="4" height="4" fill="#833B1A"/>
<rect x="32" y="36" width="4" height="4" fill="#833B1A"/>
<rect x="12" y="8" width="4" height="4" fill="#833B1A"/>
<rect x="36" y="32" width="4" height="4" fill="#833B1A"/>
<rect x="4" y="16" width="4" height="4" fill="#833B1A"/>
<rect x="40" y="16" width="4" height="4" fill="#833B1A"/>
<rect x="4" y="20" width="4" height="4" fill="#833B1A"/>
<rect x="40" y="20" width="4" height="4" fill="#833B1A"/>
<rect x="4" y="24" width="4" height="4" fill="#833B1A"/>
<rect x="40" y="24" width="4" height="4" fill="#833B1A"/>
<rect x="4" y="28" width="4" height="4" fill="#833B1A"/>
<rect x="40" y="28" width="4" height="4" fill="#833B1A"/>
<rect x="8" y="32" width="4" height="4" fill="#833B1A"/>
<rect x="12" y="36" width="4" height="4" fill="#833B1A"/>
<rect x="22" y="24" width="4" height="4" fill="#833B1A"/>
<rect x="22" y="28" width="4" height="4" fill="#833B1A"/>
<rect x="22" y="32" width="4" height="4" fill="#833B1A"/>
</svg>
