<svg width="48" height="48" viewBox="0 0 48 48" fill="none" xmlns="http://www.w3.org/2000/svg">
<rect x="30" y="20" width="4" height="4" fill="#833B1A"/>
<rect x="22" y="28" width="4" height="4" fill="#833B1A"/>
<rect x="34" y="20" width="4" height="4" fill="#833B1A"/>
<rect x="26" y="28" width="4" height="4" fill="#833B1A"/>
<rect x="30" y="28" width="4" height="4" fill="#833B1A"/>
<rect x="26.001" y="32" width="4" height="4" fill="#833B1A"/>
<rect x="30" y="32" width="4" height="4" fill="#833B1A"/>
<rect x="30" y="16" width="4" height="4" fill="#833B1A"/>
<rect x="33.999" y="16" width="4" height="4" fill="#833B1A"/>
<rect x="38" y="16" width="4" height="4" fill="#833B1A"/>
<rect x="34" y="28" width="4" height="4" fill="#833B1A"/>
<rect x="42" y="12" width="4" height="4" transform="rotate(90 42 12)" fill="#833B1A"/>
<rect x="14" y="36" width="4" height="4" fill="#833B1A"/>
<rect x="18" y="40" width="4" height="4" fill="#833B1A"/>
<rect x="38" y="12" width="4" height="4" transform="rotate(90 38 12)" fill="#833B1A"/>
<rect x="10" y="36" width="4" height="4" fill="#833B1A"/>
<rect x="14" y="40" width="4" height="4" fill="#833B1A"/>
<rect x="38" y="8" width="4" height="4" transform="rotate(90 38 8)" fill="#833B1A"/>
<rect x="6" y="36" width="4" height="4" fill="#833B1A"/>
<rect x="38" y="4" width="4" height="4" transform="rotate(90 38 4)" fill="#833B1A"/>
<rect x="18" y="32" width="4" height="4" fill="#833B1A"/>
<rect x="26" y="24" width="4" height="4" fill="#833B1A"/>
<rect x="18" y="36" width="4" height="4" fill="#833B1A"/>
<rect x="22" y="32" width="4" height="4" fill="#833B1A"/>
<rect x="30" y="24" width="4" height="4" fill="#833B1A"/>
<rect x="22" y="36" width="4" height="4" fill="#833B1A"/>
<rect x="34" y="24" width="4" height="4" fill="#833B1A"/>
<rect x="26" y="36" width="4" height="4" fill="#833B1A"/>
</svg>
