<svg width="48" height="48" viewBox="0 0 48 48" fill="none" xmlns="http://www.w3.org/2000/svg">
<rect x="18" y="6" width="4" height="4" fill="#833B1A"/>
<rect x="26" y="6" width="4" height="4" fill="#833B1A"/>
<rect x="26" y="14" width="4" height="4" fill="#833B1A"/>
<rect x="26" y="18" width="4" height="4" fill="#833B1A"/>
<rect x="26" y="26" width="4" height="4" fill="#833B1A"/>
<rect x="26" y="30" width="4" height="4" fill="#833B1A"/>
<rect x="26" y="38" width="4" height="4" fill="#833B1A"/>
<rect x="18" y="14" width="4" height="4" fill="#833B1A"/>
<rect x="18" y="18" width="4" height="4" fill="#833B1A"/>
<rect x="18" y="26" width="4" height="4" fill="#833B1A"/>
<rect x="18" y="38" width="4" height="4" fill="#833B1A"/>
<rect x="22" y="34" width="4" height="4" fill="#833B1A"/>
<rect x="30" y="10" width="4" height="4" fill="#833B1A"/>
<rect x="18" y="38" width="4" height="4" transform="rotate(-180 18 38)" fill="#833B1A"/>
<rect x="14" y="22" width="4" height="4" fill="#833B1A"/>
<rect x="30" y="22" width="4" height="4" fill="#833B1A"/>
<rect x="26" y="10" width="4" height="4" fill="#833B1A"/>
<rect x="22" y="10" width="4" height="4" fill="#833B1A"/>
<rect x="22" y="38" width="4" height="4" transform="rotate(-180 22 38)" fill="#833B1A"/>
<rect x="22" y="34" width="4" height="4" transform="rotate(-180 22 34)" fill="#833B1A"/>
<rect x="26" y="22" width="4" height="4" fill="#833B1A"/>
<rect x="22" y="22" width="4" height="4" fill="#833B1A"/>
<rect x="18" y="10" width="4" height="4" fill="#833B1A"/>
<rect x="30" y="38" width="4" height="4" transform="rotate(-180 30 38)" fill="#833B1A"/>
<rect x="18" y="22" width="4" height="4" fill="#833B1A"/>
<rect x="14" y="10" width="4" height="4" fill="#833B1A"/>
<rect x="34" y="14" width="4" height="4" fill="#833B1A"/>
<rect x="34" y="38" width="4" height="4" transform="rotate(-180 34 38)" fill="#833B1A"/>
<rect x="14" y="34" width="4" height="4" transform="rotate(-180 14 34)" fill="#833B1A"/>
<rect x="10" y="14" width="4" height="4" fill="#833B1A"/>
<rect x="10" y="18" width="4" height="4" fill="#833B1A"/>
<rect x="38" y="34" width="4" height="4" transform="rotate(-180 38 34)" fill="#833B1A"/>
<rect x="38" y="30" width="4" height="4" transform="rotate(-180 38 30)" fill="#833B1A"/>
</svg>
