<svg width="48" height="48" viewBox="0 0 48 48" fill="none" xmlns="http://www.w3.org/2000/svg">
<rect x="18" y="22" width="4" height="4" fill="white"/>
<rect x="22" y="22" width="4" height="4" fill="white"/>
<rect x="26" y="22" width="4" height="4" fill="white"/>
<rect x="34" y="22" width="4" height="4" fill="white"/>
<rect x="38" y="22" width="4" height="4" fill="white"/>
<rect x="6" y="22" width="4" height="4" fill="white"/>
<rect x="10" y="22" width="4" height="4" fill="white"/>
<rect x="18" y="18" width="4" height="4" fill="white"/>
<rect x="14" y="30" width="4" height="4" fill="white"/>
<rect x="10" y="34" width="4" height="4" fill="white"/>
<rect x="14" y="14" width="4" height="4" fill="white"/>
<rect x="10" y="10" width="4" height="4" fill="white"/>
<rect x="22" y="18" width="4" height="4" fill="white"/>
<rect x="26" y="18" width="4" height="4" fill="white"/>
<rect x="30" y="14" width="4" height="4" fill="white"/>
<rect x="34" y="10" width="4" height="4" fill="white"/>
<rect x="22" y="10" width="4" height="4" fill="white"/>
<rect x="22" y="6" width="4" height="4" fill="white"/>
<rect x="22" y="38" width="4" height="4" fill="white"/>
<rect x="22" y="34" width="4" height="4" fill="white"/>
<rect x="18" y="26" width="4" height="4" fill="white"/>
<rect x="22" y="26" width="4" height="4" fill="white"/>
<rect x="26" y="26" width="4" height="4" fill="white"/>
<rect x="22" y="26" width="4" height="4" fill="white"/>
<rect x="30" y="30" width="4" height="4" fill="white"/>
<rect x="34" y="34" width="4" height="4" fill="white"/>
</svg>
