<svg width="48" height="48" viewBox="0 0 48 48" fill="none" xmlns="http://www.w3.org/2000/svg">
<rect x="28" y="28" width="4" height="4" fill="#833B1A"/>
<rect x="32" y="30" width="4" height="4" fill="#833B1A"/>
<rect x="36" y="32" width="4" height="4" fill="#833B1A"/>
<rect x="36" y="36" width="4" height="4" fill="#833B1A"/>
<rect x="32" y="38" width="4" height="4" fill="#833B1A"/>
<rect x="28" y="40" width="4" height="4" fill="#833B1A"/>
<rect x="22" y="34" width="4" height="4" fill="#833B1A"/>
<rect x="22" y="30" width="4" height="4" fill="#833B1A"/>
<rect x="22" y="26" width="4" height="4" fill="#833B1A"/>
<rect x="22" y="22" width="4" height="4" fill="#833B1A"/>
<rect x="22" y="18" width="4" height="4" fill="#833B1A"/>
<rect x="22" y="14" width="4" height="4" fill="#833B1A"/>
<rect x="22" y="10" width="4" height="4" fill="#833B1A"/>
<rect x="26" y="10" width="4" height="4" fill="#833B1A"/>
<rect x="26" y="6" width="4" height="4" fill="#833B1A"/>
<rect x="30" y="6" width="4" height="4" fill="#833B1A"/>
<rect x="26" y="14" width="4" height="4" fill="#833B1A"/>
<rect x="26" y="18" width="4" height="4" fill="#833B1A"/>
<rect x="30" y="14" width="4" height="4" fill="#833B1A"/>
<rect x="22" y="6" width="4" height="4" fill="#833B1A"/>
<rect x="22" y="2" width="4" height="4" fill="#833B1A"/>
<rect x="26" y="2" width="4" height="4" fill="#833B1A"/>
<rect x="14" y="10" width="4" height="4" fill="#833B1A"/>
<rect x="30" y="10" width="4" height="4" fill="#833B1A"/>
<rect x="18" y="14" width="4" height="4" fill="#833B1A"/>
<rect x="18" y="18" width="4" height="4" fill="#833B1A"/>
<rect x="14" y="14" width="4" height="4" fill="#833B1A"/>
<rect x="18" y="10" width="4" height="4" fill="#833B1A"/>
<rect x="18" y="6" width="4" height="4" fill="#833B1A"/>
<rect x="18" y="2" width="4" height="4" fill="#833B1A"/>
<rect x="14" y="6" width="4" height="4" fill="#833B1A"/>
<rect x="16" y="28" width="4" height="4" fill="#833B1A"/>
<rect x="12" y="30" width="4" height="4" fill="#833B1A"/>
<rect x="8" y="32" width="4" height="4" fill="#833B1A"/>
<rect x="8" y="36" width="4" height="4" fill="#833B1A"/>
<rect x="12" y="38" width="4" height="4" fill="#833B1A"/>
<rect x="16" y="40" width="4" height="4" fill="#833B1A"/>
<rect x="20" y="42" width="4" height="4" fill="#833B1A"/>
<rect x="24" y="42" width="4" height="4" fill="#833B1A"/>
</svg>
